# Blender 3.6.5
# www.blender.org
o CraneBowl2
v -0.000000 0.000000 -2.773761
v 0.576697 0.000000 -2.713148
v 1.128190 0.000000 -2.533957
v 1.630376 0.000000 -2.244020
v 2.061306 0.000000 -1.856008
v 2.402148 0.000000 -1.386880
v 2.638003 0.000000 -0.857139
v 2.758566 0.000000 -0.289937
v 2.758566 0.000000 0.289937
v 2.638004 0.000000 0.857140
v 2.402148 0.000000 1.386881
v 2.061306 0.000000 1.856009
v 1.630376 0.000000 2.244020
v 1.128190 0.000000 2.533957
v 0.576697 0.000000 2.713149
v -0.000000 0.000000 2.773762
v -0.576698 0.000000 2.713149
v -1.128191 0.000000 2.533957
v -1.630377 0.000000 2.244020
v -2.061307 0.000000 1.856009
v -2.402149 0.000000 1.386881
v -2.638005 0.000000 0.857139
v -2.758567 0.000000 0.289937
v -2.758567 0.000000 -0.289937
v -2.638005 0.000000 -0.857140
v -2.402149 0.000000 -1.386882
v -2.061307 0.000000 -1.856010
v -1.630377 0.000000 -2.244021
v -1.128191 0.000000 -2.533958
v -0.576698 0.000000 -2.713149
vn -0.0000 1.0000 -0.0000
vt 0.103646 0.500000
vt 0.341529 0.500000
vt 0.593730 0.500000
vt 0.656432 0.500000
vt 0.687571 0.500000
vt 0.718495 0.500000
vt 0.749121 0.500000
vt 0.779312 0.500000
vt 0.808829 0.500000
vt 0.837178 0.500000
vt 0.863021 0.500000
vt 0.879141 0.500000
vt 0.782783 0.500000
vt 0.183884 0.500000
vt 0.087525 0.500000
vt 0.129489 0.500000
vt 0.157838 0.500000
vt 0.187355 0.500000
vt 0.217546 0.500000
vt 0.248171 0.500000
vt 0.279096 0.500000
vt 0.310235 0.500000
vt 0.372937 0.500000
vt 0.404425 0.500000
vt 0.435968 0.500000
vt 0.467541 0.500000
vt 0.499125 0.500000
vt 0.530699 0.500000
vt 0.562241 0.500000
vt 0.625138 0.500000
s 1
f 21/1/1 13/2/1 5/3/1
f 3/4/1 2/5/1 1/6/1
f 1/6/1 30/7/1 29/8/1
f 29/8/1 28/9/1 27/10/1
f 27/10/1 26/11/1 25/12/1
f 25/12/1 24/13/1 23/14/1
f 23/14/1 22/15/1 21/1/1
f 21/1/1 20/16/1 19/17/1
f 19/17/1 18/18/1 21/1/1
f 18/18/1 17/19/1 21/1/1
f 17/19/1 16/20/1 15/21/1
f 15/21/1 14/22/1 17/19/1
f 14/22/1 13/2/1 17/19/1
f 13/2/1 12/23/1 11/24/1
f 11/24/1 10/25/1 13/2/1
f 10/25/1 9/26/1 13/2/1
f 9/26/1 8/27/1 7/28/1
f 7/28/1 6/29/1 5/3/1
f 5/3/1 4/30/1 3/4/1
f 3/4/1 1/6/1 5/3/1
f 1/6/1 29/8/1 5/3/1
f 29/8/1 27/10/1 25/12/1
f 25/12/1 23/14/1 21/1/1
f 9/26/1 7/28/1 13/2/1
f 7/28/1 5/3/1 13/2/1
f 29/8/1 25/12/1 5/3/1
f 25/12/1 21/1/1 5/3/1
f 21/1/1 17/19/1 13/2/1
