# Blender 3.6.5
# www.blender.org
o PennsyBowl2
v -0.581637 0.000000 -2.736389
v 0.000000 0.000000 -2.797521
v -1.137854 0.000000 -2.555663
v -1.644342 0.000000 -2.263242
v -2.078963 0.000000 -1.871907
v -2.422724 0.000000 -1.398761
v -2.660601 0.000000 -0.864482
v -2.782196 0.000000 -0.292421
v -2.782196 0.000000 0.292421
v -2.660601 0.000000 0.864482
v -2.422724 0.000000 1.398761
v -2.078963 0.000000 1.871907
v -1.644342 0.000000 2.263242
v -1.137854 0.000000 2.555663
v -0.581637 0.000000 2.736389
v 0.000000 0.000000 2.797521
v 0.581637 0.000000 2.736389
v 1.137854 0.000000 2.555663
v 1.644342 0.000000 2.263242
v 2.078963 0.000000 1.871907
v 2.422724 0.000000 1.398761
v 2.660601 0.000000 0.864482
v 2.782196 0.000000 0.292421
v 2.782196 0.000000 -0.292421
v 2.660601 0.000000 -0.864482
v 2.422724 0.000000 -1.398761
v 2.078963 0.000000 -1.871907
v 1.644342 0.000000 -2.263242
v 1.137854 0.000000 -2.555663
v 0.581637 0.000000 -2.736389
vn -0.0000 1.0000 -0.0000
vt 0.180160 0.212014
vt 0.819841 0.212014
vt 0.752976 0.848191
vt 0.589483 0.920983
vt 0.500000 0.930388
vt 0.247024 0.848191
vt 0.410517 0.920983
vt 0.324946 0.893179
vt 0.180160 0.787986
vt 0.071970 0.544988
vt 0.127273 0.715194
vt 0.090677 0.632997
vt 0.071970 0.455012
vt 0.090677 0.367003
vt 0.127273 0.284806
vt 0.247024 0.151809
vt 0.324946 0.106821
vt 0.410517 0.079017
vt 0.500000 0.069612
vt 0.589483 0.079017
vt 0.675055 0.106821
vt 0.752976 0.151809
vt 0.872727 0.284806
vt 0.909323 0.367003
vt 0.928030 0.455012
vt 0.928030 0.544988
vt 0.909323 0.632997
vt 0.872727 0.715194
vt 0.819840 0.787986
vt 0.675055 0.893179
s 1
f 12/1/1 20/2/1 28/3/1
f 30/4/1 2/5/1 4/6/1
f 2/5/1 1/7/1 4/6/1
f 1/7/1 3/8/1 4/6/1
f 4/6/1 5/9/1 8/10/1
f 5/9/1 6/11/1 8/10/1
f 6/11/1 7/12/1 8/10/1
f 8/10/1 9/13/1 10/14/1
f 10/14/1 11/15/1 8/10/1
f 11/15/1 12/1/1 8/10/1
f 12/1/1 13/16/1 14/17/1
f 14/17/1 15/18/1 16/19/1
f 16/19/1 17/20/1 18/21/1
f 18/21/1 19/22/1 20/2/1
f 20/2/1 21/23/1 22/24/1
f 22/24/1 23/25/1 20/2/1
f 23/25/1 24/26/1 20/2/1
f 24/26/1 25/27/1 26/28/1
f 26/28/1 27/29/1 28/3/1
f 28/3/1 29/30/1 4/6/1
f 29/30/1 30/4/1 4/6/1
f 12/1/1 14/17/1 16/19/1
f 16/19/1 18/21/1 12/1/1
f 18/21/1 20/2/1 12/1/1
f 24/26/1 26/28/1 20/2/1
f 26/28/1 28/3/1 20/2/1
f 4/6/1 8/10/1 12/1/1
f 28/3/1 4/6/1 12/1/1
