# Blender 3.6.5
# www.blender.org
o PennsyBowl3
v -0.675713 -0.375000 -3.178980
v -2.415221 -0.375000 -2.174675
v -3.232196 -0.375000 -0.339718
v -3.090934 -0.375000 1.004305
v -2.415221 -0.375000 2.174675
v -0.675713 -0.375000 3.178980
v 3.090934 -0.375000 1.004305
v 3.232196 -0.375000 0.339718
v 3.232196 -0.375000 -0.339718
v 3.090934 -0.375000 -1.004305
v 2.814583 -0.375000 -1.625000
v 2.415221 -0.375000 -2.174675
v 1.321894 -0.375000 -2.969023
v 0.675713 -0.375000 -3.178980
v 0.000000 -0.375000 -3.250688
v 1.910707 -0.375000 -2.629863
v 2.815180 -0.375000 1.625345
v 2.415733 -0.375000 2.175136
v 1.910707 -0.375000 2.629864
v 1.322175 -0.375000 2.969653
v 0.675856 -0.375000 3.179655
v -0.000000 -0.375000 3.250690
v -1.322175 -0.375000 2.969653
v -1.910708 -0.375000 2.629864
v -2.815180 -0.375000 1.625345
v -3.232882 -0.375000 0.339790
v -3.091590 -0.375000 -1.004519
v -2.815181 -0.375000 -1.625345
v -1.910708 -0.375000 -2.629864
v -1.322175 -0.375000 -2.969654
v -0.675713 0.000000 -3.178980
v 0.000000 0.000000 -3.250000
v -1.321894 0.000000 -2.969023
v -1.910302 0.000000 -2.629305
v -2.415221 0.000000 -2.174675
v -2.814583 0.000000 -1.625000
v -3.090934 0.000000 -1.004305
v -3.232196 0.000000 -0.339718
v -3.232196 0.000000 0.339718
v -3.090934 0.000000 1.004305
v -2.814583 0.000000 1.625000
v -2.415221 0.000000 2.174675
v -1.910302 0.000000 2.629305
v -1.321894 0.000000 2.969023
v -0.675713 0.000000 3.178980
v 0.000000 0.000000 3.250000
v 0.675713 0.000000 3.178980
v 1.321894 0.000000 2.969023
v 1.910302 0.000000 2.629305
v 2.415221 0.000000 2.174675
v 2.814583 0.000000 1.625000
v 3.090934 0.000000 1.004305
v 3.232196 0.000000 0.339718
v 3.232196 0.000000 -0.339718
v 3.090934 0.000000 -1.004305
v 2.814583 0.000000 -1.625000
v 2.415221 0.000000 -2.174675
v 1.910302 0.000000 -2.629305
v 1.321894 0.000000 -2.969023
v 0.675713 0.000000 -3.178980
v -0.586864 0.000000 -2.760977
v 0.000000 0.000000 -2.822659
v -1.148079 0.000000 -2.578627
v -1.659117 0.000000 -2.283579
v -2.097644 0.000000 -1.888728
v -2.444494 0.000000 -1.411330
v -2.684508 0.000000 -0.872250
v -2.807196 0.000000 -0.295048
v -2.807196 0.000000 0.295048
v -2.684508 0.000000 0.872250
v -2.444494 0.000000 1.411330
v -2.097644 0.000000 1.888728
v -1.659117 0.000000 2.283579
v -1.148079 0.000000 2.578627
v -0.586864 0.000000 2.760977
v 0.000000 0.000000 2.822659
v 0.586864 0.000000 2.760977
v 1.148079 0.000000 2.578627
v 1.659117 0.000000 2.283579
v 2.097644 0.000000 1.888728
v 2.444494 0.000000 1.411330
v 2.684508 0.000000 0.872250
v 2.807196 0.000000 0.295048
v 2.807196 0.000000 -0.295048
v 2.684508 0.000000 -0.872250
v 2.444494 0.000000 -1.411330
v 2.097644 0.000000 -1.888728
v 1.659117 0.000000 -2.283579
v 1.148079 0.000000 -2.578627
v 0.586864 0.000000 -2.760977
vn -0.9511 0.0007 0.3090
vn -0.8660 0.0011 0.5000
vn -0.9511 -0.0000 0.3090
vn 0.9511 -0.0000 -0.3090
vn 0.9945 -0.0000 -0.1045
vn -0.7431 0.0007 0.6691
vn -0.8660 0.0018 0.5000
vn 0.8660 -0.0000 -0.5000
vn -0.5880 0.0015 0.8088
vn -0.7431 -0.0000 0.6691
vn 0.7433 0.0004 -0.6690
vn -0.5882 0.0018 0.8087
vn -0.4065 0.0015 0.9137
vn 0.5878 0.0011 -0.8090
vn 0.7431 -0.0000 -0.6691
vn -0.2079 0.0007 0.9781
vn -0.4063 0.0018 0.9137
vn -0.2079 0.0007 -0.9781
vn -0.0000 0.0011 -1.0000
vn -0.0000 0.0018 -1.0000
vn 0.4066 0.0004 -0.9136
vn 0.5878 0.0018 -0.8090
vn -0.0003 0.0015 1.0000
vn -0.2079 -0.0000 0.9781
vn -0.4065 0.0015 -0.9137
vn -0.2079 -0.0000 -0.9781
vn 0.2081 0.0004 -0.9781
vn 0.4067 -0.0000 -0.9135
vn 0.2079 0.0018 0.9781
vn -0.0005 0.0018 1.0000
vn -0.4063 0.0018 -0.9137
vn -0.5880 0.0015 -0.8088
vn 0.2079 -0.0000 -0.9781
vn 0.4067 0.0018 0.9135
vn -0.7431 0.0007 -0.6691
vn -0.5882 0.0018 -0.8087
vn 0.5878 0.0018 0.8090
vn -0.8659 0.0015 -0.5003
vn -0.7431 -0.0000 -0.6691
vn 0.7431 0.0018 0.6691
vn -0.9512 0.0018 -0.3085
vn -0.8658 0.0018 -0.5004
vn 0.8662 0.0015 0.4997
vn -0.9945 0.0007 -0.1045
vn -0.9511 0.0015 -0.3087
vn 0.9511 0.0004 0.3088
vn 0.8663 0.0018 0.4996
vn -0.9945 0.0011 0.1045
vn -0.9945 -0.0000 -0.1045
vn 0.9945 -0.0000 0.1045
vn 0.9511 -0.0000 0.3090
vn -0.9945 0.0018 0.1045
vn -0.0000 1.0000 -0.0000
vt 0.024472 0.345491
vt 0.066987 0.250000
vt 0.975528 0.654508
vt 0.997261 0.552264
vt 0.128428 0.165435
vt 0.933013 0.750000
vt 0.206107 0.095491
vt 0.871572 0.834565
vt 0.296632 0.043227
vt 0.793893 0.904509
vt 0.396044 0.010926
vt 0.396044 0.989074
vt 0.500000 1.000000
vt 0.703368 0.956773
vt 0.500000 0.000000
vt 0.296632 0.956773
vt 0.603956 0.989074
vt 0.603956 0.010926
vt 0.206107 0.904509
vt 0.703368 0.043227
vt 0.128428 0.834565
vt 0.793893 0.095491
vt 0.066987 0.750000
vt 0.871572 0.165435
vt 0.024472 0.654508
vt 0.933013 0.250000
vt 0.002739 0.552264
vt 0.975528 0.345491
vt 0.002739 0.447736
vt 0.997261 0.447736
vt 0.409713 0.924766
vt 0.323373 0.896712
vt 0.244751 0.851320
vt 0.177286 0.790573
vt 0.123924 0.717128
vt 0.086999 0.634192
vt 0.068124 0.545392
vt 0.068124 0.454608
vt 0.086999 0.365808
vt 0.123924 0.282872
vt 0.177286 0.209427
vt 0.244751 0.148680
vt 0.323373 0.103288
vt 0.409713 0.075234
vt 0.500000 0.065745
vt 0.590287 0.075234
vt 0.676628 0.103288
vt 0.755249 0.148680
vt 0.822715 0.209427
vt 0.876076 0.282872
vt 0.913001 0.365808
vt 0.931876 0.454608
vt 0.931876 0.545392
vt 0.913001 0.634192
vt 0.876076 0.717128
vt 0.822714 0.790573
vt 0.755249 0.851320
vt 0.676628 0.896712
vt 0.590287 0.924766
vt 0.500000 0.934255
s 1
f 4/1/1 41/2/2 40/1/3
f 10/3/4 54/4/5 9/4/5
f 5/5/6 41/2/2 25/2/7
f 11/6/8 55/3/4 10/3/4
f 5/5/6 43/7/9 42/5/10
f 12/8/11 56/6/8 11/6/8
f 24/7/12 44/9/13 43/7/9
f 12/8/11 58/10/14 57/8/15
f 6/11/16 44/9/13 23/9/17
f 1/12/18 32/13/19 15/13/20
f 13/14/21 58/10/14 16/10/22
f 6/11/16 46/15/23 45/11/24
f 1/12/18 33/16/25 31/12/26
f 14/17/27 59/14/28 13/14/21
f 21/18/29 46/15/23 22/15/30
f 30/16/31 34/19/32 33/16/25
f 14/17/27 32/13/19 60/17/33
f 21/18/29 48/20/34 47/18/29
f 2/21/35 34/19/32 29/19/36
f 19/22/37 48/20/34 20/20/34
f 2/21/35 36/23/38 35/21/39
f 18/24/40 49/22/37 19/22/37
f 27/25/41 36/23/38 28/23/42
f 18/24/40 51/26/43 50/24/40
f 3/27/44 37/25/45 27/25/41
f 7/28/46 51/26/43 17/26/47
f 3/27/44 39/29/48 38/27/49
f 8/30/50 52/28/51 7/28/46
f 4/1/1 39/29/48 26/29/52
f 9/4/5 53/30/50 8/30/50
f 61/31/53 32/13/53 31/12/53
f 61/31/53 33/16/53 63/32/53
f 63/32/53 34/19/53 64/33/53
f 65/34/53 34/19/53 35/21/53
f 66/35/53 35/21/53 36/23/53
f 66/35/53 37/25/53 67/36/53
f 67/36/53 38/27/53 68/37/53
f 69/38/53 38/27/53 39/29/53
f 69/38/53 40/1/53 70/39/53
f 70/39/53 41/2/53 71/40/53
f 71/40/53 42/5/53 72/41/53
f 72/41/53 43/7/53 73/42/53
f 73/42/53 44/9/53 74/43/53
f 75/44/53 44/9/53 45/11/53
f 75/44/53 46/15/53 76/45/53
f 77/46/53 46/15/53 47/18/53
f 77/46/53 48/20/53 78/47/53
f 78/47/53 49/22/53 79/48/53
f 80/49/53 49/22/53 50/24/53
f 81/50/53 50/24/53 51/26/53
f 81/50/53 52/28/53 82/51/53
f 82/51/53 53/30/53 83/52/53
f 84/53/53 53/30/53 54/4/53
f 84/53/53 55/3/53 85/54/53
f 85/54/53 56/6/53 86/55/53
f 86/55/53 57/8/53 87/56/53
f 87/56/53 58/10/53 88/57/53
f 88/57/53 59/14/53 89/58/53
f 90/59/53 59/14/53 60/17/53
f 90/59/53 32/13/53 62/60/53
f 4/1/1 25/2/7 41/2/2
f 10/3/4 55/3/4 54/4/5
f 5/5/6 42/5/10 41/2/2
f 11/6/8 56/6/8 55/3/4
f 5/5/6 24/7/12 43/7/9
f 12/8/11 57/8/15 56/6/8
f 24/7/12 23/9/17 44/9/13
f 12/8/11 16/10/22 58/10/14
f 6/11/16 45/11/24 44/9/13
f 1/12/18 31/12/26 32/13/19
f 13/14/21 59/14/28 58/10/14
f 6/11/16 22/15/30 46/15/23
f 1/12/18 30/16/31 33/16/25
f 14/17/27 60/17/33 59/14/28
f 21/18/29 47/18/29 46/15/23
f 30/16/31 29/19/36 34/19/32
f 14/17/27 15/13/20 32/13/19
f 21/18/29 20/20/34 48/20/34
f 2/21/35 35/21/39 34/19/32
f 19/22/37 49/22/37 48/20/34
f 2/21/35 28/23/42 36/23/38
f 18/24/40 50/24/40 49/22/37
f 27/25/41 37/25/45 36/23/38
f 18/24/40 17/26/47 51/26/43
f 3/27/44 38/27/49 37/25/45
f 7/28/46 52/28/51 51/26/43
f 3/27/44 26/29/52 39/29/48
f 8/30/50 53/30/50 52/28/51
f 4/1/1 40/1/3 39/29/48
f 9/4/5 54/4/5 53/30/50
f 61/31/53 62/60/53 32/13/53
f 61/31/53 31/12/53 33/16/53
f 63/32/53 33/16/53 34/19/53
f 65/34/53 64/33/53 34/19/53
f 66/35/53 65/34/53 35/21/53
f 66/35/53 36/23/53 37/25/53
f 67/36/53 37/25/53 38/27/53
f 69/38/53 68/37/53 38/27/53
f 69/38/53 39/29/53 40/1/53
f 70/39/53 40/1/53 41/2/53
f 71/40/53 41/2/53 42/5/53
f 72/41/53 42/5/53 43/7/53
f 73/42/53 43/7/53 44/9/53
f 75/44/53 74/43/53 44/9/53
f 75/44/53 45/11/53 46/15/53
f 77/46/53 76/45/53 46/15/53
f 77/46/53 47/18/53 48/20/53
f 78/47/53 48/20/53 49/22/53
f 80/49/53 79/48/53 49/22/53
f 81/50/53 80/49/53 50/24/53
f 81/50/53 51/26/53 52/28/53
f 82/51/53 52/28/53 53/30/53
f 84/53/53 83/52/53 53/30/53
f 84/53/53 54/4/53 55/3/53
f 85/54/53 55/3/53 56/6/53
f 86/55/53 56/6/53 57/8/53
f 87/56/53 57/8/53 58/10/53
f 88/57/53 58/10/53 59/14/53
f 90/59/53 89/58/53 59/14/53
f 90/59/53 60/17/53 32/13/53
