# Blender 3.6.5
# www.blender.org
o RizzoliBowl3
v -0.211376 0.000000 -1.198772
v 0.000000 0.000000 -1.217265
v -0.416329 0.000000 -1.143855
v -0.608633 0.000000 -1.054182
v -0.782443 0.000000 -0.932479
v -0.932479 0.000000 -0.782443
v -1.054183 0.000000 -0.608632
v -1.143855 0.000000 -0.416330
v -1.198772 0.000000 -0.211376
v -1.217265 0.000000 0.000000
v -1.198772 0.000000 0.211376
v -1.143855 0.000000 0.416329
v -1.054182 0.000000 0.608633
v -0.932479 0.000000 0.782443
v -0.782443 0.000000 0.932479
v -0.608633 0.000000 1.054183
v -0.416330 0.000000 1.143855
v -0.211376 0.000000 1.198772
v 0.000000 0.000000 1.217265
v 0.211376 0.000000 1.198772
v 0.416329 0.000000 1.143855
v 0.608633 0.000000 1.054182
v 0.782443 0.000000 0.932479
v 0.932479 0.000000 0.782442
v 1.054182 0.000000 0.608633
v 1.143855 0.000000 0.416329
v 1.198772 0.000000 0.211375
v 1.217265 0.000000 0.000000
v 1.198772 0.000000 -0.211376
v 1.143855 0.000000 -0.416330
v 1.054183 0.000000 -0.608632
v 0.932479 0.000000 -0.782442
v 0.782443 0.000000 -0.932479
v 0.608633 0.000000 -1.054182
v 0.416329 0.000000 -1.143855
v 0.211375 0.000000 -1.198772
v -0.564357 -0.500000 -3.200625
v 0.000000 -0.500000 -3.250000
v -1.111565 -0.500000 -3.054001
v -1.625000 -0.500000 -2.814583
v -2.089060 -0.500000 -2.489645
v -2.489645 -0.500000 -2.089060
v -2.814583 -0.500000 -1.625000
v -3.054001 -0.500000 -1.111565
v -3.200625 -0.500000 -0.564357
v -3.250000 -0.500000 0.000000
v -3.200625 -0.500000 0.564357
v -3.054001 -0.500000 1.111565
v -2.814583 -0.500000 1.625000
v -2.489645 -0.500000 2.089060
v -2.089060 -0.500000 2.489645
v -1.625000 -0.500000 2.814583
v -1.111566 -0.500000 3.054001
v -0.564357 -0.500000 3.200625
v 0.000000 -0.500000 3.250000
v 0.564357 -0.500000 3.200625
v 1.111565 -0.500000 3.054001
v 1.625000 -0.500000 2.814583
v 2.089060 -0.500000 2.489645
v 2.489645 -0.500000 2.089059
v 2.814583 -0.500000 1.625000
v 3.054001 -0.500000 1.111565
v 3.200625 -0.500000 0.564356
v 3.250000 -0.500000 -0.000000
v 3.200625 -0.500000 -0.564357
v 3.054001 -0.500000 -1.111565
v 2.814583 -0.500000 -1.625000
v 2.489645 -0.500000 -2.089059
v 2.089060 -0.500000 -2.489644
v 1.625001 -0.500000 -2.814582
v 1.111566 -0.500000 -3.054001
v 0.564356 -0.500000 -3.200625
v -0.564357 0.000000 -3.200625
v 0.000000 0.000000 -3.250000
v -1.111565 0.000000 -3.054001
v -1.625000 0.000000 -2.814583
v -2.089060 0.000000 -2.489645
v -2.489645 0.000000 -2.089060
v -2.814583 0.000000 -1.625000
v -3.054001 0.000000 -1.111565
v -3.200625 0.000000 -0.564357
v -3.250000 0.000000 0.000000
v -3.200625 0.000000 0.564357
v -3.054001 0.000000 1.111565
v -2.814583 0.000000 1.625000
v -2.489645 0.000000 2.089060
v -2.089060 0.000000 2.489645
v -1.625000 0.000000 2.814583
v -1.111566 0.000000 3.054001
v -0.564357 0.000000 3.200625
v 0.000000 0.000000 3.250000
v 0.564357 0.000000 3.200625
v 1.111565 0.000000 3.054001
v 1.625000 0.000000 2.814583
v 2.089060 0.000000 2.489645
v 2.489645 0.000000 2.089059
v 2.814583 0.000000 1.625000
v 3.054001 0.000000 1.111565
v 3.200625 0.000000 0.564356
v 3.250000 0.000000 -0.000000
v 3.200625 0.000000 -0.564357
v 3.054001 0.000000 -1.111565
v 2.814583 0.000000 -1.625000
v 2.489645 0.000000 -2.089059
v 2.089060 0.000000 -2.489644
v 1.625001 0.000000 -2.814582
v 1.111566 0.000000 -3.054001
v 0.564356 0.000000 -3.200625
v -0.477201 0.000000 -2.706341
v 0.000000 0.000000 -2.748090
v -0.939902 0.000000 -2.582360
v -1.374045 0.000000 -2.379916
v -1.766438 0.000000 -2.105159
v -2.105159 0.000000 -1.766438
v -2.379916 0.000000 -1.374045
v -2.582360 0.000000 -0.939902
v -2.706340 0.000000 -0.477201
v -2.748090 0.000000 0.000000
v -2.706341 0.000000 0.477201
v -2.582360 0.000000 0.939902
v -2.379916 0.000000 1.374045
v -2.105159 0.000000 1.766438
v -1.766438 0.000000 2.105159
v -1.374045 0.000000 2.379916
v -0.939902 0.000000 2.582360
v -0.477201 0.000000 2.706340
v 0.000000 0.000000 2.748090
v 0.477201 0.000000 2.706340
v 0.939902 0.000000 2.582360
v 1.374045 0.000000 2.379916
v 1.766438 0.000000 2.105159
v 2.105160 0.000000 1.766438
v 2.379916 0.000000 1.374045
v 2.582360 0.000000 0.939902
v 2.706341 0.000000 0.477201
v 2.748090 0.000000 0.000000
v 2.706340 0.000000 -0.477201
v 2.582360 0.000000 -0.939902
v 2.379916 0.000000 -1.374045
v 2.105159 0.000000 -1.766438
v 1.766439 0.000000 -2.105159
v 1.374045 0.000000 -2.379916
v 0.939903 0.000000 -2.582360
v 0.477200 0.000000 -2.706341
v -0.472843 0.000000 -2.681626
v 0.000000 0.000000 -2.722995
v -0.931319 0.000000 -2.558778
v -1.361497 0.000000 -2.358183
v -1.750307 0.000000 -2.085935
v -2.085935 0.000000 -1.750307
v -2.358183 0.000000 -1.361497
v -2.558778 0.000000 -0.931319
v -2.681626 0.000000 -0.472843
v -2.722995 0.000000 0.000000
v -2.681626 0.000000 0.472843
v -2.558778 0.000000 0.931319
v -2.358183 0.000000 1.361498
v -2.085935 0.000000 1.750307
v -1.750307 0.000000 2.085935
v -1.361498 0.000000 2.358183
v -0.931319 0.000000 2.558778
v -0.472843 0.000000 2.681626
v 0.000000 0.000000 2.722995
v 0.472843 0.000000 2.681626
v 0.931319 0.000000 2.558778
v 1.361497 0.000000 2.358182
v 1.750307 0.000000 2.085935
v 2.085935 0.000000 1.750307
v 2.358183 0.000000 1.361497
v 2.558778 0.000000 0.931319
v 2.681626 0.000000 0.472843
v 2.722995 0.000000 0.000000
v 2.681626 0.000000 -0.472843
v 2.558778 0.000000 -0.931319
v 2.358183 0.000000 -1.361497
v 2.085935 0.000000 -1.750307
v 1.750308 0.000000 -2.085935
v 1.361498 0.000000 -2.358182
v 0.931320 0.000000 -2.558778
v 0.472842 0.000000 -2.681627
v -0.429265 0.000000 -2.434484
v 0.000000 0.000000 -2.472040
v -0.845487 0.000000 -2.322958
v -1.236020 0.000000 -2.140849
v -1.588996 0.000000 -1.893692
v -1.893692 0.000000 -1.588996
v -2.140850 0.000000 -1.236020
v -2.322958 0.000000 -0.845488
v -2.434484 0.000000 -0.429265
v -2.472040 0.000000 0.000000
v -2.434484 0.000000 0.429265
v -2.322958 0.000000 0.845487
v -2.140849 0.000000 1.236020
v -1.893692 0.000000 1.588997
v -1.588997 0.000000 1.893692
v -1.236020 0.000000 2.140849
v -0.845488 0.000000 2.322958
v -0.429266 0.000000 2.434484
v 0.000000 0.000000 2.472040
v 0.429265 0.000000 2.434484
v 0.845487 0.000000 2.322958
v 1.236020 0.000000 2.140849
v 1.588996 0.000000 1.893692
v 1.893693 0.000000 1.588996
v 2.140849 0.000000 1.236020
v 2.322958 0.000000 0.845487
v 2.434484 0.000000 0.429265
v 2.472040 0.000000 0.000000
v 2.434484 0.000000 -0.429265
v 2.322958 0.000000 -0.845487
v 2.140850 0.000000 -1.236020
v 1.893692 0.000000 -1.588996
v 1.588997 0.000000 -1.893692
v 1.236020 0.000000 -2.140849
v 0.845488 0.000000 -2.322957
v 0.429265 0.000000 -2.434484
vn -0.0000 1.0000 -0.0000
vn 0.3420 -0.0000 0.9397
vn 0.1736 -0.0000 0.9848
vn -0.9397 -0.0000 -0.3420
vn -0.8660 -0.0000 -0.5000
vn 0.3420 -0.0000 -0.9397
vn 0.5000 -0.0000 -0.8660
vn 0.5000 -0.0000 0.8660
vn -0.9848 -0.0000 -0.1736
vn 0.1736 -0.0000 -0.9848
vn 0.6428 -0.0000 0.7660
vn -1.0000 -0.0000 -0.0000
vn -0.0000 -0.0000 -1.0000
vn 0.7660 -0.0000 0.6428
vn -0.9848 -0.0000 0.1736
vn 0.8660 -0.0000 0.5000
vn -0.9397 -0.0000 0.3420
vn 0.9397 -0.0000 0.3420
vn -0.8660 -0.0000 0.5000
vn 0.9848 -0.0000 0.1736
vn -0.7660 -0.0000 0.6428
vn 1.0000 -0.0000 -0.0000
vn -0.6428 -0.0000 0.7660
vn -0.1736 -0.0000 -0.9848
vn 0.9848 -0.0000 -0.1736
vn -0.5000 -0.0000 0.8660
vn -0.3420 -0.0000 -0.9397
vn 0.9397 -0.0000 -0.3420
vn -0.3420 -0.0000 0.9397
vn -0.5000 -0.0000 -0.8660
vn 0.8660 -0.0000 -0.5000
vn -0.1736 -0.0000 0.9848
vn -0.6428 -0.0000 -0.7660
vn 0.7660 -0.0000 -0.6428
vn -0.0000 -0.0000 1.0000
vn -0.7660 -0.0000 -0.6428
vn 0.6428 -0.0000 -0.7660
vt 0.324022 0.564051
vt 0.643458 0.379624
vt 0.643458 0.620376
vt 0.671010 0.030154
vt 0.586824 0.007596
vt 0.030154 0.671010
vt 0.066987 0.750000
vt 0.671010 0.969846
vt 0.750000 0.933013
vt 0.750000 0.066987
vt 0.007596 0.586824
vt 0.586824 0.992404
vt 0.821394 0.116978
vt 0.000000 0.500000
vt 0.500000 1.000000
vt 0.883022 0.178606
vt 0.007596 0.413176
vt 0.933013 0.250000
vt 0.030154 0.328990
vt 0.969846 0.328990
vt 0.066987 0.250000
vt 0.992404 0.413176
vt 0.116978 0.178606
vt 1.000000 0.500000
vt 0.178606 0.116978
vt 0.413176 0.992404
vt 0.992404 0.586824
vt 0.250000 0.066987
vt 0.328990 0.969846
vt 0.969846 0.671010
vt 0.328990 0.030154
vt 0.250000 0.933013
vt 0.933013 0.750000
vt 0.413176 0.007596
vt 0.178606 0.883022
vt 0.883022 0.821394
vt 0.500000 0.000000
vt 0.116978 0.821394
vt 0.821394 0.883022
vt 0.500000 0.922783
vt 0.426585 0.916360
vt 0.355400 0.897286
vt 0.288608 0.866141
vt 0.228240 0.823871
vt 0.176129 0.771760
vt 0.133859 0.711392
vt 0.102714 0.644600
vt 0.083640 0.573416
vt 0.077217 0.500000
vt 0.083640 0.426585
vt 0.102714 0.355400
vt 0.133859 0.288608
vt 0.176129 0.228240
vt 0.228240 0.176129
vt 0.288608 0.133859
vt 0.355400 0.102714
vt 0.426584 0.083640
vt 0.500000 0.077217
vt 0.573415 0.083640
vt 0.644600 0.102714
vt 0.711392 0.133859
vt 0.771760 0.176129
vt 0.823871 0.228240
vt 0.866141 0.288608
vt 0.897286 0.355400
vt 0.916360 0.426585
vt 0.922783 0.500000
vt 0.916360 0.573416
vt 0.897286 0.644600
vt 0.866141 0.711392
vt 0.823871 0.771760
vt 0.771760 0.823871
vt 0.711392 0.866141
vt 0.644600 0.897286
vt 0.573415 0.916360
vt 0.500000 0.880314
vt 0.427255 0.912558
vt 0.433959 0.874537
vt 0.369925 0.857378
vt 0.356720 0.893658
vt 0.309843 0.829362
vt 0.290539 0.862798
vt 0.230722 0.820913
vt 0.255539 0.791337
vt 0.179087 0.769279
vt 0.208663 0.744461
vt 0.170639 0.690157
vt 0.137203 0.709462
vt 0.106342 0.643280
vt 0.142622 0.630075
vt 0.087442 0.572745
vt 0.125464 0.566041
vt 0.119686 0.500000
vt 0.081078 0.500000
vt 0.125464 0.433959
vt 0.087442 0.427255
vt 0.106342 0.356720
vt 0.142622 0.369925
vt 0.170639 0.309843
vt 0.137203 0.290539
vt 0.179087 0.230722
vt 0.208663 0.255539
vt 0.230722 0.179087
vt 0.255539 0.208663
vt 0.290539 0.137203
vt 0.309843 0.170639
vt 0.356720 0.106342
vt 0.369925 0.142622
vt 0.427255 0.087442
vt 0.433959 0.125464
vt 0.500000 0.119686
vt 0.500000 0.081078
vt 0.572745 0.087442
vt 0.566041 0.125464
vt 0.630075 0.142622
vt 0.643280 0.106342
vt 0.709461 0.137203
vt 0.690157 0.170639
vt 0.744461 0.208663
vt 0.769278 0.179087
vt 0.820913 0.230722
vt 0.791337 0.255539
vt 0.862797 0.290539
vt 0.829361 0.309843
vt 0.893658 0.356720
vt 0.857378 0.369925
vt 0.912558 0.427255
vt 0.874536 0.433959
vt 0.880314 0.500000
vt 0.918922 0.500000
vt 0.912558 0.572745
vt 0.874536 0.566041
vt 0.857378 0.630075
vt 0.893658 0.643280
vt 0.829362 0.690157
vt 0.862797 0.709461
vt 0.820913 0.769278
vt 0.791337 0.744461
vt 0.744461 0.791337
vt 0.769278 0.820913
vt 0.690157 0.829361
vt 0.709461 0.862797
vt 0.643280 0.893658
vt 0.630075 0.857378
vt 0.566041 0.874536
vt 0.572745 0.912558
vt 0.500000 0.918922
vt 0.532519 0.684427
vt 0.500000 0.687272
vt 0.467481 0.684427
vt 0.435949 0.675978
vt 0.406364 0.662182
vt 0.379624 0.643459
vt 0.356542 0.620376
vt 0.337818 0.593636
vt 0.315574 0.532520
vt 0.312729 0.500000
vt 0.315574 0.467481
vt 0.324022 0.435949
vt 0.337818 0.406364
vt 0.356542 0.379624
vt 0.379624 0.356542
vt 0.406364 0.337818
vt 0.435949 0.324022
vt 0.467481 0.315574
vt 0.500000 0.312729
vt 0.532519 0.315574
vt 0.564051 0.324022
vt 0.593636 0.337818
vt 0.620376 0.356542
vt 0.662182 0.406364
vt 0.687272 0.500000
vt 0.675978 0.435949
vt 0.684427 0.467481
vt 0.684426 0.532519
vt 0.675978 0.564051
vt 0.662182 0.593636
vt 0.620376 0.643458
vt 0.593636 0.662182
vt 0.564051 0.675978
s 1
f 8/1/1 24/2/1 32/3/1
f 57/4/2 92/5/3 56/5/3
f 44/6/4 79/7/5 43/7/5
f 71/8/6 106/9/7 70/9/7
f 58/10/8 93/4/2 57/4/2
f 45/11/9 80/6/4 44/6/4
f 72/12/10 107/8/6 71/8/6
f 59/13/11 94/10/8 58/10/8
f 46/14/12 81/11/9 45/11/9
f 38/15/13 108/12/10 72/12/10
f 60/16/14 95/13/11 59/13/11
f 47/17/15 82/14/12 46/14/12
f 61/18/16 96/16/14 60/16/14
f 48/19/17 83/17/15 47/17/15
f 62/20/18 97/18/16 61/18/16
f 49/21/19 84/19/17 48/19/17
f 63/22/20 98/20/18 62/20/18
f 50/23/21 85/21/19 49/21/19
f 64/24/22 99/22/20 63/22/20
f 51/25/23 86/23/21 50/23/21
f 37/26/24 74/15/13 38/15/13
f 65/27/25 100/24/22 64/24/22
f 52/28/26 87/25/23 51/25/23
f 39/29/27 73/26/24 37/26/24
f 66/30/28 101/27/25 65/27/25
f 53/31/29 88/28/26 52/28/26
f 40/32/30 75/29/27 39/29/27
f 67/33/31 102/30/28 66/30/28
f 54/34/32 89/31/29 53/31/29
f 41/35/33 76/32/30 40/32/30
f 68/36/34 103/33/31 67/33/31
f 55/37/35 90/34/32 54/34/32
f 42/38/36 77/35/33 41/35/33
f 69/39/37 104/36/34 68/36/34
f 56/5/3 91/37/35 55/37/35
f 43/7/5 78/38/36 42/38/36
f 70/9/7 105/39/37 69/39/37
f 110/40/1 73/26/1 109/41/1
f 109/41/1 75/29/1 111/42/1
f 112/43/1 75/29/1 76/32/1
f 113/44/1 76/32/1 77/35/1
f 114/45/1 77/35/1 78/38/1
f 115/46/1 78/38/1 79/7/1
f 115/46/1 80/6/1 116/47/1
f 116/47/1 81/11/1 117/48/1
f 118/49/1 81/11/1 82/14/1
f 119/50/1 82/14/1 83/17/1
f 119/50/1 84/19/1 120/51/1
f 121/52/1 84/19/1 85/21/1
f 121/52/1 86/23/1 122/53/1
f 122/53/1 87/25/1 123/54/1
f 123/54/1 88/28/1 124/55/1
f 124/55/1 89/31/1 125/56/1
f 125/56/1 90/34/1 126/57/1
f 127/58/1 90/34/1 91/37/1
f 127/58/1 92/5/1 128/59/1
f 129/60/1 92/5/1 93/4/1
f 129/60/1 94/10/1 130/61/1
f 131/62/1 94/10/1 95/13/1
f 131/62/1 96/16/1 132/63/1
f 132/63/1 97/18/1 133/64/1
f 133/64/1 98/20/1 134/65/1
f 135/66/1 98/20/1 99/22/1
f 135/66/1 100/24/1 136/67/1
f 136/67/1 101/27/1 137/68/1
f 138/69/1 101/27/1 102/30/1
f 139/70/1 102/30/1 103/33/1
f 139/70/1 104/36/1 140/71/1
f 141/72/1 104/36/1 105/39/1
f 141/72/1 106/9/1 142/73/1
f 142/73/1 107/8/1 143/74/1
f 144/75/1 107/8/1 108/12/1
f 144/75/1 74/15/1 110/40/1
f 182/76/1 145/77/1 181/78/1
f 183/79/1 145/77/1 147/80/1
f 184/81/1 147/80/1 148/82/1
f 184/81/1 149/83/1 185/84/1
f 185/84/1 150/85/1 186/86/1
f 187/87/1 150/85/1 151/88/1
f 187/87/1 152/89/1 188/90/1
f 188/90/1 153/91/1 189/92/1
f 190/93/1 153/91/1 154/94/1
f 191/95/1 154/94/1 155/96/1
f 191/95/1 156/97/1 192/98/1
f 193/99/1 156/97/1 157/100/1
f 193/99/1 158/101/1 194/102/1
f 194/102/1 159/103/1 195/104/1
f 195/104/1 160/105/1 196/106/1
f 196/106/1 161/107/1 197/108/1
f 197/108/1 162/109/1 198/110/1
f 199/111/1 162/109/1 163/112/1
f 199/111/1 164/113/1 200/114/1
f 201/115/1 164/113/1 165/116/1
f 201/115/1 166/117/1 202/118/1
f 203/119/1 166/117/1 167/120/1
f 203/119/1 168/121/1 204/122/1
f 204/122/1 169/123/1 205/124/1
f 205/124/1 170/125/1 206/126/1
f 206/126/1 171/127/1 207/128/1
f 208/129/1 171/127/1 172/130/1
f 208/129/1 173/131/1 209/132/1
f 210/133/1 173/131/1 174/134/1
f 211/135/1 174/134/1 175/136/1
f 211/135/1 176/137/1 212/138/1
f 213/139/1 176/137/1 177/140/1
f 214/141/1 177/140/1 178/142/1
f 214/141/1 179/143/1 215/144/1
f 216/145/1 179/143/1 180/146/1
f 216/145/1 146/147/1 182/76/1
f 36/148/1 2/149/1 1/150/1
f 1/150/1 3/151/1 36/148/1
f 3/151/1 4/152/1 36/148/1
f 4/152/1 5/153/1 6/154/1
f 6/154/1 7/155/1 8/1/1
f 8/1/1 9/156/1 10/157/1
f 10/157/1 11/158/1 12/159/1
f 12/159/1 13/160/1 14/161/1
f 14/161/1 15/162/1 12/159/1
f 15/162/1 16/163/1 12/159/1
f 16/163/1 17/164/1 18/165/1
f 18/165/1 19/166/1 16/163/1
f 19/166/1 20/167/1 16/163/1
f 20/167/1 21/168/1 24/2/1
f 21/168/1 22/169/1 24/2/1
f 22/169/1 23/170/1 24/2/1
f 24/2/1 25/171/1 28/172/1
f 25/171/1 26/173/1 28/172/1
f 26/173/1 27/174/1 28/172/1
f 28/172/1 29/175/1 32/3/1
f 29/175/1 30/176/1 32/3/1
f 30/176/1 31/177/1 32/3/1
f 32/3/1 33/178/1 34/179/1
f 34/179/1 35/180/1 36/148/1
f 4/152/1 6/154/1 8/1/1
f 8/1/1 10/157/1 16/163/1
f 10/157/1 12/159/1 16/163/1
f 32/3/1 34/179/1 36/148/1
f 36/148/1 4/152/1 32/3/1
f 4/152/1 8/1/1 32/3/1
f 16/163/1 20/167/1 24/2/1
f 24/2/1 28/172/1 32/3/1
f 8/1/1 16/163/1 24/2/1
f 57/4/2 93/4/2 92/5/3
f 44/6/4 80/6/4 79/7/5
f 71/8/6 107/8/6 106/9/7
f 58/10/8 94/10/8 93/4/2
f 45/11/9 81/11/9 80/6/4
f 72/12/10 108/12/10 107/8/6
f 59/13/11 95/13/11 94/10/8
f 46/14/12 82/14/12 81/11/9
f 38/15/13 74/15/13 108/12/10
f 60/16/14 96/16/14 95/13/11
f 47/17/15 83/17/15 82/14/12
f 61/18/16 97/18/16 96/16/14
f 48/19/17 84/19/17 83/17/15
f 62/20/18 98/20/18 97/18/16
f 49/21/19 85/21/19 84/19/17
f 63/22/20 99/22/20 98/20/18
f 50/23/21 86/23/21 85/21/19
f 64/24/22 100/24/22 99/22/20
f 51/25/23 87/25/23 86/23/21
f 37/26/24 73/26/24 74/15/13
f 65/27/25 101/27/25 100/24/22
f 52/28/26 88/28/26 87/25/23
f 39/29/27 75/29/27 73/26/24
f 66/30/28 102/30/28 101/27/25
f 53/31/29 89/31/29 88/28/26
f 40/32/30 76/32/30 75/29/27
f 67/33/31 103/33/31 102/30/28
f 54/34/32 90/34/32 89/31/29
f 41/35/33 77/35/33 76/32/30
f 68/36/34 104/36/34 103/33/31
f 55/37/35 91/37/35 90/34/32
f 42/38/36 78/38/36 77/35/33
f 69/39/37 105/39/37 104/36/34
f 56/5/3 92/5/3 91/37/35
f 43/7/5 79/7/5 78/38/36
f 70/9/7 106/9/7 105/39/37
f 110/40/1 74/15/1 73/26/1
f 109/41/1 73/26/1 75/29/1
f 112/43/1 111/42/1 75/29/1
f 113/44/1 112/43/1 76/32/1
f 114/45/1 113/44/1 77/35/1
f 115/46/1 114/45/1 78/38/1
f 115/46/1 79/7/1 80/6/1
f 116/47/1 80/6/1 81/11/1
f 118/49/1 117/48/1 81/11/1
f 119/50/1 118/49/1 82/14/1
f 119/50/1 83/17/1 84/19/1
f 121/52/1 120/51/1 84/19/1
f 121/52/1 85/21/1 86/23/1
f 122/53/1 86/23/1 87/25/1
f 123/54/1 87/25/1 88/28/1
f 124/55/1 88/28/1 89/31/1
f 125/56/1 89/31/1 90/34/1
f 127/58/1 126/57/1 90/34/1
f 127/58/1 91/37/1 92/5/1
f 129/60/1 128/59/1 92/5/1
f 129/60/1 93/4/1 94/10/1
f 131/62/1 130/61/1 94/10/1
f 131/62/1 95/13/1 96/16/1
f 132/63/1 96/16/1 97/18/1
f 133/64/1 97/18/1 98/20/1
f 135/66/1 134/65/1 98/20/1
f 135/66/1 99/22/1 100/24/1
f 136/67/1 100/24/1 101/27/1
f 138/69/1 137/68/1 101/27/1
f 139/70/1 138/69/1 102/30/1
f 139/70/1 103/33/1 104/36/1
f 141/72/1 140/71/1 104/36/1
f 141/72/1 105/39/1 106/9/1
f 142/73/1 106/9/1 107/8/1
f 144/75/1 143/74/1 107/8/1
f 144/75/1 108/12/1 74/15/1
f 182/76/1 146/147/1 145/77/1
f 183/79/1 181/78/1 145/77/1
f 184/81/1 183/79/1 147/80/1
f 184/81/1 148/82/1 149/83/1
f 185/84/1 149/83/1 150/85/1
f 187/87/1 186/86/1 150/85/1
f 187/87/1 151/88/1 152/89/1
f 188/90/1 152/89/1 153/91/1
f 190/93/1 189/92/1 153/91/1
f 191/95/1 190/93/1 154/94/1
f 191/95/1 155/96/1 156/97/1
f 193/99/1 192/98/1 156/97/1
f 193/99/1 157/100/1 158/101/1
f 194/102/1 158/101/1 159/103/1
f 195/104/1 159/103/1 160/105/1
f 196/106/1 160/105/1 161/107/1
f 197/108/1 161/107/1 162/109/1
f 199/111/1 198/110/1 162/109/1
f 199/111/1 163/112/1 164/113/1
f 201/115/1 200/114/1 164/113/1
f 201/115/1 165/116/1 166/117/1
f 203/119/1 202/118/1 166/117/1
f 203/119/1 167/120/1 168/121/1
f 204/122/1 168/121/1 169/123/1
f 205/124/1 169/123/1 170/125/1
f 206/126/1 170/125/1 171/127/1
f 208/129/1 207/128/1 171/127/1
f 208/129/1 172/130/1 173/131/1
f 210/133/1 209/132/1 173/131/1
f 211/135/1 210/133/1 174/134/1
f 211/135/1 175/136/1 176/137/1
f 213/139/1 212/138/1 176/137/1
f 214/141/1 213/139/1 177/140/1
f 214/141/1 178/142/1 179/143/1
f 216/145/1 215/144/1 179/143/1
f 216/145/1 180/146/1 146/147/1
