# Blender 3.6.5
# www.blender.org
o Nathan_Center_Support
v 0.103956 10.000000 0.489074
v 0.000000 10.000000 0.500000
v 0.203368 10.000000 0.456773
v 0.293893 10.000000 0.404508
v 0.371572 10.000000 0.334565
v 0.433013 10.000000 0.250000
v 0.475528 10.000000 0.154508
v 0.497261 10.000000 0.052264
v 0.497261 10.000000 -0.052264
v 0.475528 10.000000 -0.154509
v 0.433013 10.000000 -0.250000
v 0.371572 10.000000 -0.334565
v 0.293893 10.000000 -0.404509
v 0.203368 10.000000 -0.456773
v 0.103956 10.000000 -0.489074
v 0.000000 10.000000 -0.500000
v -0.103956 10.000000 -0.489074
v -0.203368 10.000000 -0.456773
v -0.293893 10.000000 -0.404509
v -0.371572 10.000000 -0.334565
v -0.433013 10.000000 -0.250000
v -0.475528 10.000000 -0.154509
v -0.497261 10.000000 -0.052264
v -0.497261 10.000000 0.052264
v -0.475528 10.000000 0.154508
v -0.433013 10.000000 0.250000
v -0.371572 10.000000 0.334565
v -0.293893 10.000000 0.404508
v -0.203368 10.000000 0.456773
v -0.103956 10.000000 0.489074
v 0.103956 0.000001 -0.489074
v 0.000000 0.000001 -0.500000
v 0.103956 0.000001 0.489074
v 0.000000 0.000001 0.500000
v 0.203368 0.000001 0.456773
v -0.103956 0.000001 -0.489074
v -0.203368 0.000001 -0.456773
v -0.293892 0.000001 -0.404509
v -0.103956 0.000001 0.489074
v 0.293893 0.000001 0.404509
v -0.371572 0.000001 -0.334565
v 0.371573 0.000001 0.334565
v -0.433013 0.000001 -0.250000
v 0.433013 0.000001 0.250000
v -0.475528 0.000001 -0.154509
v 0.475528 0.000001 0.154509
v -0.497261 0.000001 -0.052264
v 0.497261 0.000001 0.052264
v -0.497261 0.000001 0.052264
v 0.497261 0.000001 -0.052264
v -0.475528 0.000001 0.154509
v 0.475528 0.000001 -0.154509
v -0.433013 0.000001 0.250000
v 0.433013 0.000001 -0.250000
v -0.371572 0.000001 0.334565
v 0.371573 0.000001 -0.334565
v -0.293892 0.000001 0.404509
v 0.293893 0.000001 -0.404509
v -0.203368 0.000001 0.456773
v 0.203368 0.000001 -0.456773
vn 0.8660 -0.0000 0.5000
vn 0.9511 -0.0000 0.3090
vn -0.0000 -1.0000 -0.0000
vn 0.7431 -0.0000 -0.6691
vn 0.5878 -0.0000 -0.8090
vn 0.4067 -0.0000 0.9135
vn 0.5878 -0.0000 0.8090
vn -0.8660 -0.0000 -0.5000
vn -0.9511 -0.0000 -0.3090
vn 0.7431 -0.0000 0.6691
vn 0.4067 -0.0000 -0.9135
vn 0.2079 -0.0000 -0.9781
vn -0.7431 -0.0000 0.6691
vn -0.5878 -0.0000 0.8090
vn -0.0000 -0.0000 -1.0000
vn -0.2079 -0.0000 -0.9781
vn 0.9511 -0.0000 -0.3090
vn 0.8660 -0.0000 -0.5000
vn -0.0000 -0.0000 1.0000
vn 0.2079 -0.0000 0.9781
vn -0.9511 -0.0000 0.3090
vn -0.8660 -0.0000 0.5000
vn -0.9945 -0.0000 0.1045
vn -0.5878 -0.0000 -0.8090
vn -0.7431 -0.0000 -0.6691
vn -0.4067 -0.0000 0.9135
vn -0.9945 -0.0000 -0.1045
vn -0.4067 -0.0000 -0.9135
vn -0.2079 -0.0000 0.9781
vn 0.9945 -0.0000 0.1045
vn 0.9945 -0.0000 -0.1045
s 1
f 6//1 46//2 7//2
f 42//3 55//3 38//3
f 12//4 58//5 13//5
f 3//6 40//7 4//7
f 21//8 45//9 22//9
f 4//7 42//10 5//10
f 14//11 31//12 15//12
f 27//13 57//14 28//14
f 15//12 32//15 16//15
f 16//15 36//16 17//16
f 13//5 60//11 14//11
f 10//17 54//18 11//18
f 2//19 33//20 1//20
f 25//21 53//22 26//22
f 24//23 51//21 25//21
f 19//24 41//25 20//25
f 1//20 35//6 3//6
f 5//10 44//1 6//1
f 28//14 59//26 29//26
f 22//9 47//27 23//27
f 23//27 49//23 24//23
f 20//25 43//8 21//8
f 11//18 56//4 12//4
f 18//28 38//24 19//24
f 29//26 39//29 30//29
f 30//29 34//19 2//19
f 8//30 50//31 9//31
f 26//22 55//13 27//13
f 17//16 37//28 18//28
f 7//2 48//30 8//30
f 9//31 52//17 10//17
f 6//1 44//1 46//2
f 36//3 32//3 31//3
f 31//3 60//3 36//3
f 60//3 58//3 36//3
f 58//3 56//3 54//3
f 54//3 52//3 50//3
f 50//3 48//3 46//3
f 46//3 44//3 50//3
f 44//3 42//3 50//3
f 42//3 40//3 35//3
f 35//3 33//3 34//3
f 34//3 39//3 59//3
f 59//3 57//3 55//3
f 55//3 53//3 47//3
f 53//3 51//3 47//3
f 51//3 49//3 47//3
f 47//3 45//3 43//3
f 43//3 41//3 38//3
f 38//3 37//3 58//3
f 37//3 36//3 58//3
f 58//3 54//3 50//3
f 42//3 35//3 34//3
f 34//3 59//3 42//3
f 59//3 55//3 42//3
f 47//3 43//3 38//3
f 58//3 50//3 42//3
f 55//3 47//3 38//3
f 38//3 58//3 42//3
f 12//4 56//4 58//5
f 3//6 35//6 40//7
f 21//8 43//8 45//9
f 4//7 40//7 42//10
f 14//11 60//11 31//12
f 27//13 55//13 57//14
f 15//12 31//12 32//15
f 16//15 32//15 36//16
f 13//5 58//5 60//11
f 10//17 52//17 54//18
f 2//19 34//19 33//20
f 25//21 51//21 53//22
f 24//23 49//23 51//21
f 19//24 38//24 41//25
f 1//20 33//20 35//6
f 5//10 42//10 44//1
f 28//14 57//14 59//26
f 22//9 45//9 47//27
f 23//27 47//27 49//23
f 20//25 41//25 43//8
f 11//18 54//18 56//4
f 18//28 37//28 38//24
f 29//26 59//26 39//29
f 30//29 39//29 34//19
f 8//30 48//30 50//31
f 26//22 53//22 55//13
f 17//16 36//16 37//28
f 7//2 46//2 48//30
f 9//31 50//31 52//17
